<mxfile host="app.diagrams.net" modified="2024-04-25T02:49:55.718Z" agent="Mozilla/5.0 (Macintosh; Intel Mac OS X 10_15_7) AppleWebKit/537.36 (KHTML, like Gecko) Chrome/124.0.0.0 Safari/537.36" etag="xviLSEFVQ536JBtiioKn" version="24.3.0" type="github">
  <diagram name="페이지-1" id="Em0SUkirB6BjcU2I9QTY">
    <mxGraphModel dx="1576" dy="1025" grid="1" gridSize="10" guides="1" tooltips="1" connect="1" arrows="1" fold="1" page="1" pageScale="1" pageWidth="827" pageHeight="1169" math="0" shadow="0">
      <root>
        <mxCell id="0" />
        <mxCell id="1" parent="0" />
        <mxCell id="7VY-dnaH7uGsK5_24sgp-1" value="고객" style="whiteSpace=wrap;html=1;align=center;rounded=1;" parent="1" vertex="1">
          <mxGeometry x="364" y="150" width="100" height="40" as="geometry" />
        </mxCell>
        <mxCell id="7VY-dnaH7uGsK5_24sgp-2" value="지역" style="whiteSpace=wrap;html=1;align=center;rounded=1;" parent="1" vertex="1">
          <mxGeometry x="80" y="430" width="100" height="40" as="geometry" />
        </mxCell>
        <mxCell id="7VY-dnaH7uGsK5_24sgp-3" value="제품" style="whiteSpace=wrap;html=1;align=center;rounded=1;" parent="1" vertex="1">
          <mxGeometry x="660" y="430" width="100" height="40" as="geometry" />
        </mxCell>
        <mxCell id="7VY-dnaH7uGsK5_24sgp-4" value="주소" style="ellipse;whiteSpace=wrap;html=1;align=center;rounded=1;" parent="1" vertex="1">
          <mxGeometry x="80" y="40" width="100" height="40" as="geometry" />
        </mxCell>
        <mxCell id="7VY-dnaH7uGsK5_24sgp-12" value="고객명" style="ellipse;whiteSpace=wrap;html=1;align=center;rounded=1;" parent="1" vertex="1">
          <mxGeometry x="530" y="40" width="100" height="40" as="geometry" />
        </mxCell>
        <mxCell id="7VY-dnaH7uGsK5_24sgp-13" value="가입일" style="ellipse;whiteSpace=wrap;html=1;align=center;rounded=1;" parent="1" vertex="1">
          <mxGeometry x="640" y="40" width="100" height="40" as="geometry" />
        </mxCell>
        <mxCell id="7VY-dnaH7uGsK5_24sgp-16" value="전화번호" style="ellipse;whiteSpace=wrap;html=1;align=center;fontStyle=4;rounded=1;" parent="1" vertex="1">
          <mxGeometry x="420" y="40" width="100" height="40" as="geometry" />
        </mxCell>
        <mxCell id="7VY-dnaH7uGsK5_24sgp-17" value="이메일" style="ellipse;whiteSpace=wrap;html=1;align=center;fontStyle=4;rounded=1;" parent="1" vertex="1">
          <mxGeometry x="314" y="40" width="100" height="40" as="geometry" />
        </mxCell>
        <mxCell id="7VY-dnaH7uGsK5_24sgp-18" value="고객코드" style="ellipse;whiteSpace=wrap;html=1;align=center;fontStyle=4;rounded=1;" parent="1" vertex="1">
          <mxGeometry x="210" y="40" width="100" height="40" as="geometry" />
        </mxCell>
        <mxCell id="7VY-dnaH7uGsK5_24sgp-19" value="상세주소" style="ellipse;whiteSpace=wrap;html=1;align=center;rounded=1;" parent="1" vertex="1">
          <mxGeometry x="140" y="100" width="100" height="40" as="geometry" />
        </mxCell>
        <mxCell id="7VY-dnaH7uGsK5_24sgp-20" value="기본주소" style="ellipse;whiteSpace=wrap;html=1;align=center;rounded=1;" parent="1" vertex="1">
          <mxGeometry x="20" y="100" width="100" height="40" as="geometry" />
        </mxCell>
        <mxCell id="7VY-dnaH7uGsK5_24sgp-21" value="" style="endArrow=none;html=1;rounded=0;entryX=0.5;entryY=1;entryDx=0;entryDy=0;exitX=0.5;exitY=0;exitDx=0;exitDy=0;" parent="1" source="7VY-dnaH7uGsK5_24sgp-20" target="7VY-dnaH7uGsK5_24sgp-4" edge="1">
          <mxGeometry relative="1" as="geometry">
            <mxPoint x="50" y="180" as="sourcePoint" />
            <mxPoint x="210" y="180" as="targetPoint" />
            <Array as="points">
              <mxPoint x="100" y="90" />
            </Array>
          </mxGeometry>
        </mxCell>
        <mxCell id="7VY-dnaH7uGsK5_24sgp-23" value="" style="endArrow=none;html=1;rounded=0;entryX=0.5;entryY=1;entryDx=0;entryDy=0;exitX=0.5;exitY=0;exitDx=0;exitDy=0;" parent="1" source="7VY-dnaH7uGsK5_24sgp-19" target="7VY-dnaH7uGsK5_24sgp-4" edge="1">
          <mxGeometry relative="1" as="geometry">
            <mxPoint x="80" y="110" as="sourcePoint" />
            <mxPoint x="140" y="90" as="targetPoint" />
            <Array as="points" />
          </mxGeometry>
        </mxCell>
        <mxCell id="7VY-dnaH7uGsK5_24sgp-24" value="관리" style="shape=rhombus;perimeter=rhombusPerimeter;whiteSpace=wrap;html=1;align=center;rounded=1;" parent="1" vertex="1">
          <mxGeometry x="180" y="270" width="120" height="60" as="geometry" />
        </mxCell>
        <mxCell id="7VY-dnaH7uGsK5_24sgp-25" value="구매" style="shape=rhombus;perimeter=rhombusPerimeter;whiteSpace=wrap;html=1;align=center;rounded=1;" parent="1" vertex="1">
          <mxGeometry x="540" y="270" width="120" height="60" as="geometry" />
        </mxCell>
        <mxCell id="7VY-dnaH7uGsK5_24sgp-26" value="" style="endArrow=none;html=1;rounded=0;entryX=0.5;entryY=0;entryDx=0;entryDy=0;exitX=0.5;exitY=1;exitDx=0;exitDy=0;" parent="1" source="7VY-dnaH7uGsK5_24sgp-1" target="7VY-dnaH7uGsK5_24sgp-24" edge="1">
          <mxGeometry relative="1" as="geometry">
            <mxPoint x="420" y="270" as="sourcePoint" />
            <mxPoint x="360" y="250" as="targetPoint" />
            <Array as="points" />
          </mxGeometry>
        </mxCell>
        <mxCell id="7VY-dnaH7uGsK5_24sgp-36" value="N" style="edgeLabel;html=1;align=center;verticalAlign=middle;resizable=0;points=[];rounded=1;" parent="7VY-dnaH7uGsK5_24sgp-26" vertex="1" connectable="0">
          <mxGeometry x="0.2575" y="-1" relative="1" as="geometry">
            <mxPoint x="-25" y="-9" as="offset" />
          </mxGeometry>
        </mxCell>
        <mxCell id="7VY-dnaH7uGsK5_24sgp-43" value="N" style="edgeLabel;html=1;align=center;verticalAlign=middle;resizable=0;points=[];rounded=1;" parent="7VY-dnaH7uGsK5_24sgp-26" vertex="1" connectable="0">
          <mxGeometry x="0.0364" y="3" relative="1" as="geometry">
            <mxPoint as="offset" />
          </mxGeometry>
        </mxCell>
        <mxCell id="7VY-dnaH7uGsK5_24sgp-27" value="" style="endArrow=none;html=1;rounded=0;exitX=0.5;exitY=0;exitDx=0;exitDy=0;entryX=0.5;entryY=1;entryDx=0;entryDy=0;" parent="1" source="7VY-dnaH7uGsK5_24sgp-25" target="7VY-dnaH7uGsK5_24sgp-1" edge="1">
          <mxGeometry relative="1" as="geometry">
            <mxPoint x="424" y="200" as="sourcePoint" />
            <mxPoint x="410" y="190" as="targetPoint" />
            <Array as="points" />
          </mxGeometry>
        </mxCell>
        <mxCell id="7VY-dnaH7uGsK5_24sgp-41" value="N" style="edgeLabel;html=1;align=center;verticalAlign=middle;resizable=0;points=[];rounded=1;" parent="7VY-dnaH7uGsK5_24sgp-27" vertex="1" connectable="0">
          <mxGeometry x="-0.1718" y="3" relative="1" as="geometry">
            <mxPoint as="offset" />
          </mxGeometry>
        </mxCell>
        <mxCell id="7VY-dnaH7uGsK5_24sgp-28" value="" style="endArrow=none;html=1;rounded=0;exitX=0.5;exitY=1;exitDx=0;exitDy=0;entryX=0.5;entryY=0;entryDx=0;entryDy=0;" parent="1" source="7VY-dnaH7uGsK5_24sgp-24" target="7VY-dnaH7uGsK5_24sgp-2" edge="1">
          <mxGeometry relative="1" as="geometry">
            <mxPoint x="610" y="280" as="sourcePoint" />
            <mxPoint x="420" y="200" as="targetPoint" />
            <Array as="points" />
          </mxGeometry>
        </mxCell>
        <mxCell id="7VY-dnaH7uGsK5_24sgp-45" value="1" style="edgeLabel;html=1;align=center;verticalAlign=middle;resizable=0;points=[];rounded=1;" parent="7VY-dnaH7uGsK5_24sgp-28" vertex="1" connectable="0">
          <mxGeometry x="-0.0389" y="1" relative="1" as="geometry">
            <mxPoint y="1" as="offset" />
          </mxGeometry>
        </mxCell>
        <mxCell id="7VY-dnaH7uGsK5_24sgp-29" value="" style="endArrow=none;html=1;rounded=0;exitX=0.5;exitY=0;exitDx=0;exitDy=0;entryX=0.5;entryY=1;entryDx=0;entryDy=0;" parent="1" source="7VY-dnaH7uGsK5_24sgp-3" target="7VY-dnaH7uGsK5_24sgp-25" edge="1">
          <mxGeometry relative="1" as="geometry">
            <mxPoint x="610" y="280" as="sourcePoint" />
            <mxPoint x="420" y="200" as="targetPoint" />
            <Array as="points" />
          </mxGeometry>
        </mxCell>
        <mxCell id="7VY-dnaH7uGsK5_24sgp-42" value="M" style="edgeLabel;html=1;align=center;verticalAlign=middle;resizable=0;points=[];rounded=1;" parent="7VY-dnaH7uGsK5_24sgp-29" vertex="1" connectable="0">
          <mxGeometry x="-0.114" relative="1" as="geometry">
            <mxPoint as="offset" />
          </mxGeometry>
        </mxCell>
        <mxCell id="7VY-dnaH7uGsK5_24sgp-30" value="" style="endArrow=none;html=1;rounded=0;entryX=0.5;entryY=1;entryDx=0;entryDy=0;" parent="1" target="7VY-dnaH7uGsK5_24sgp-18" edge="1">
          <mxGeometry relative="1" as="geometry">
            <mxPoint x="410" y="150" as="sourcePoint" />
            <mxPoint x="354" y="130" as="targetPoint" />
            <Array as="points" />
          </mxGeometry>
        </mxCell>
        <mxCell id="7VY-dnaH7uGsK5_24sgp-31" value="" style="endArrow=none;html=1;rounded=0;entryX=1;entryY=0.5;entryDx=0;entryDy=0;" parent="1" target="7VY-dnaH7uGsK5_24sgp-4" edge="1">
          <mxGeometry relative="1" as="geometry">
            <mxPoint x="410" y="150" as="sourcePoint" />
            <mxPoint x="270" y="90" as="targetPoint" />
            <Array as="points" />
          </mxGeometry>
        </mxCell>
        <mxCell id="7VY-dnaH7uGsK5_24sgp-32" value="" style="endArrow=none;html=1;rounded=0;entryX=0.5;entryY=1;entryDx=0;entryDy=0;" parent="1" target="7VY-dnaH7uGsK5_24sgp-17" edge="1">
          <mxGeometry relative="1" as="geometry">
            <mxPoint x="410" y="150" as="sourcePoint" />
            <mxPoint x="280" y="100" as="targetPoint" />
            <Array as="points" />
          </mxGeometry>
        </mxCell>
        <mxCell id="7VY-dnaH7uGsK5_24sgp-33" value="" style="endArrow=none;html=1;rounded=0;entryX=0.5;entryY=1;entryDx=0;entryDy=0;exitX=0.5;exitY=0;exitDx=0;exitDy=0;" parent="1" source="7VY-dnaH7uGsK5_24sgp-1" target="7VY-dnaH7uGsK5_24sgp-16" edge="1">
          <mxGeometry relative="1" as="geometry">
            <mxPoint x="444" y="180" as="sourcePoint" />
            <mxPoint x="374" y="90" as="targetPoint" />
            <Array as="points" />
          </mxGeometry>
        </mxCell>
        <mxCell id="7VY-dnaH7uGsK5_24sgp-34" value="" style="endArrow=none;html=1;rounded=0;entryX=0.5;entryY=1;entryDx=0;entryDy=0;exitX=0.5;exitY=0;exitDx=0;exitDy=0;" parent="1" source="7VY-dnaH7uGsK5_24sgp-1" target="7VY-dnaH7uGsK5_24sgp-12" edge="1">
          <mxGeometry relative="1" as="geometry">
            <mxPoint x="454" y="190" as="sourcePoint" />
            <mxPoint x="480" y="90" as="targetPoint" />
            <Array as="points" />
          </mxGeometry>
        </mxCell>
        <mxCell id="7VY-dnaH7uGsK5_24sgp-35" value="" style="endArrow=none;html=1;rounded=0;entryX=0.5;entryY=1;entryDx=0;entryDy=0;exitX=0.5;exitY=0;exitDx=0;exitDy=0;" parent="1" source="7VY-dnaH7uGsK5_24sgp-1" target="7VY-dnaH7uGsK5_24sgp-13" edge="1">
          <mxGeometry relative="1" as="geometry">
            <mxPoint x="464" y="200" as="sourcePoint" />
            <mxPoint x="490" y="100" as="targetPoint" />
            <Array as="points" />
          </mxGeometry>
        </mxCell>
        <mxCell id="7VY-dnaH7uGsK5_24sgp-46" value="지역명" style="ellipse;whiteSpace=wrap;html=1;align=center;rounded=1;" parent="1" vertex="1">
          <mxGeometry x="20" y="500" width="100" height="40" as="geometry" />
        </mxCell>
        <mxCell id="7VY-dnaH7uGsK5_24sgp-48" value="" style="endArrow=none;html=1;rounded=0;entryX=0.5;entryY=1;entryDx=0;entryDy=0;exitX=0.5;exitY=0;exitDx=0;exitDy=0;" parent="1" edge="1">
          <mxGeometry relative="1" as="geometry">
            <mxPoint x="190" y="500" as="sourcePoint" />
            <mxPoint x="130" y="470" as="targetPoint" />
            <Array as="points" />
          </mxGeometry>
        </mxCell>
        <mxCell id="7VY-dnaH7uGsK5_24sgp-49" value="" style="endArrow=none;html=1;rounded=0;entryX=0.5;entryY=1;entryDx=0;entryDy=0;exitX=0.5;exitY=0;exitDx=0;exitDy=0;" parent="1" source="7VY-dnaH7uGsK5_24sgp-46" target="7VY-dnaH7uGsK5_24sgp-2" edge="1">
          <mxGeometry relative="1" as="geometry">
            <mxPoint x="200" y="510" as="sourcePoint" />
            <mxPoint x="140" y="480" as="targetPoint" />
            <Array as="points" />
          </mxGeometry>
        </mxCell>
        <mxCell id="7VY-dnaH7uGsK5_24sgp-55" value="지역코드" style="ellipse;whiteSpace=wrap;html=1;align=center;fontStyle=4;rounded=1;" parent="1" vertex="1">
          <mxGeometry x="140" y="500" width="100" height="40" as="geometry" />
        </mxCell>
        <mxCell id="7VY-dnaH7uGsK5_24sgp-56" value="제품코드" style="ellipse;whiteSpace=wrap;html=1;align=center;fontStyle=4;rounded=1;" parent="1" vertex="1">
          <mxGeometry x="530" y="430" width="100" height="40" as="geometry" />
        </mxCell>
        <mxCell id="7VY-dnaH7uGsK5_24sgp-57" value="구매코드" style="ellipse;whiteSpace=wrap;html=1;align=center;fontStyle=4;rounded=1;" parent="1" vertex="1">
          <mxGeometry x="700" y="220" width="100" height="40" as="geometry" />
        </mxCell>
        <mxCell id="7VY-dnaH7uGsK5_24sgp-58" value="제품명" style="ellipse;whiteSpace=wrap;html=1;align=center;rounded=1;" parent="1" vertex="1">
          <mxGeometry x="520" y="480" width="100" height="40" as="geometry" />
        </mxCell>
        <mxCell id="7VY-dnaH7uGsK5_24sgp-59" value="제품구분" style="ellipse;whiteSpace=wrap;html=1;align=center;rounded=1;" parent="1" vertex="1">
          <mxGeometry x="657" y="530" width="100" height="40" as="geometry" />
        </mxCell>
        <mxCell id="7VY-dnaH7uGsK5_24sgp-62" value="가격" style="ellipse;whiteSpace=wrap;html=1;align=center;rounded=1;" parent="1" vertex="1">
          <mxGeometry x="547" y="530" width="100" height="40" as="geometry" />
        </mxCell>
        <mxCell id="7VY-dnaH7uGsK5_24sgp-63" value="수량" style="ellipse;whiteSpace=wrap;html=1;align=center;rounded=1;" parent="1" vertex="1">
          <mxGeometry x="700" y="270" width="100" height="40" as="geometry" />
        </mxCell>
        <mxCell id="7VY-dnaH7uGsK5_24sgp-64" value="구매일자" style="ellipse;whiteSpace=wrap;html=1;align=center;rounded=1;" parent="1" vertex="1">
          <mxGeometry x="700" y="320" width="100" height="40" as="geometry" />
        </mxCell>
        <mxCell id="7VY-dnaH7uGsK5_24sgp-66" value="원산지" style="ellipse;whiteSpace=wrap;html=1;align=center;rounded=1;" parent="1" vertex="1">
          <mxGeometry x="767" y="530" width="100" height="40" as="geometry" />
        </mxCell>
        <mxCell id="7VY-dnaH7uGsK5_24sgp-67" value="인증정보" style="ellipse;whiteSpace=wrap;html=1;align=center;rounded=1;" parent="1" vertex="1">
          <mxGeometry x="790" y="480" width="100" height="40" as="geometry" />
        </mxCell>
        <mxCell id="7VY-dnaH7uGsK5_24sgp-68" value="제조회사 수정" style="ellipse;whiteSpace=wrap;html=1;align=center;rounded=1;" parent="1" vertex="1">
          <mxGeometry x="790" y="430" width="100" height="40" as="geometry" />
        </mxCell>
        <mxCell id="7VY-dnaH7uGsK5_24sgp-69" value="" style="endArrow=none;html=1;rounded=0;exitX=1;exitY=0.5;exitDx=0;exitDy=0;entryX=0;entryY=0.5;entryDx=0;entryDy=0;" parent="1" source="7VY-dnaH7uGsK5_24sgp-56" target="7VY-dnaH7uGsK5_24sgp-3" edge="1">
          <mxGeometry relative="1" as="geometry">
            <mxPoint x="442" y="540" as="sourcePoint" />
            <mxPoint x="710" y="470" as="targetPoint" />
            <Array as="points" />
          </mxGeometry>
        </mxCell>
        <mxCell id="7VY-dnaH7uGsK5_24sgp-70" value="" style="endArrow=none;html=1;rounded=0;entryX=0;entryY=0.5;entryDx=0;entryDy=0;exitX=0.957;exitY=0.506;exitDx=0;exitDy=0;exitPerimeter=0;" parent="1" source="7VY-dnaH7uGsK5_24sgp-25" target="7VY-dnaH7uGsK5_24sgp-57" edge="1">
          <mxGeometry relative="1" as="geometry">
            <mxPoint x="660" y="300" as="sourcePoint" />
            <mxPoint x="710" y="100" as="targetPoint" />
            <Array as="points" />
          </mxGeometry>
        </mxCell>
        <mxCell id="7VY-dnaH7uGsK5_24sgp-71" value="" style="endArrow=none;html=1;rounded=0;entryX=0;entryY=0.5;entryDx=0;entryDy=0;exitX=0.961;exitY=0.52;exitDx=0;exitDy=0;exitPerimeter=0;" parent="1" source="7VY-dnaH7uGsK5_24sgp-25" target="7VY-dnaH7uGsK5_24sgp-63" edge="1">
          <mxGeometry relative="1" as="geometry">
            <mxPoint x="660" y="300" as="sourcePoint" />
            <mxPoint x="710" y="250" as="targetPoint" />
            <Array as="points" />
          </mxGeometry>
        </mxCell>
        <mxCell id="7VY-dnaH7uGsK5_24sgp-72" value="" style="endArrow=none;html=1;rounded=0;entryX=0;entryY=0.5;entryDx=0;entryDy=0;exitX=0.961;exitY=0.529;exitDx=0;exitDy=0;exitPerimeter=0;" parent="1" source="7VY-dnaH7uGsK5_24sgp-25" target="7VY-dnaH7uGsK5_24sgp-64" edge="1">
          <mxGeometry relative="1" as="geometry">
            <mxPoint x="665" y="309" as="sourcePoint" />
            <mxPoint x="710" y="300" as="targetPoint" />
            <Array as="points" />
          </mxGeometry>
        </mxCell>
        <mxCell id="7VY-dnaH7uGsK5_24sgp-74" value="" style="endArrow=none;html=1;rounded=0;exitX=1;exitY=0.5;exitDx=0;exitDy=0;entryX=0;entryY=0.5;entryDx=0;entryDy=0;" parent="1" source="7VY-dnaH7uGsK5_24sgp-58" target="7VY-dnaH7uGsK5_24sgp-3" edge="1">
          <mxGeometry relative="1" as="geometry">
            <mxPoint x="640" y="460" as="sourcePoint" />
            <mxPoint x="670" y="460" as="targetPoint" />
            <Array as="points" />
          </mxGeometry>
        </mxCell>
        <mxCell id="7VY-dnaH7uGsK5_24sgp-75" value="" style="endArrow=none;html=1;rounded=0;exitX=0.5;exitY=0;exitDx=0;exitDy=0;entryX=0.479;entryY=1.011;entryDx=0;entryDy=0;entryPerimeter=0;" parent="1" source="7VY-dnaH7uGsK5_24sgp-62" target="7VY-dnaH7uGsK5_24sgp-3" edge="1">
          <mxGeometry relative="1" as="geometry">
            <mxPoint x="630" y="510" as="sourcePoint" />
            <mxPoint x="710" y="470" as="targetPoint" />
            <Array as="points" />
          </mxGeometry>
        </mxCell>
        <mxCell id="7VY-dnaH7uGsK5_24sgp-76" value="" style="endArrow=none;html=1;rounded=0;exitX=0.5;exitY=0;exitDx=0;exitDy=0;entryX=0.479;entryY=0.999;entryDx=0;entryDy=0;entryPerimeter=0;" parent="1" source="7VY-dnaH7uGsK5_24sgp-59" target="7VY-dnaH7uGsK5_24sgp-3" edge="1">
          <mxGeometry relative="1" as="geometry">
            <mxPoint x="640" y="520" as="sourcePoint" />
            <mxPoint x="680" y="470" as="targetPoint" />
            <Array as="points" />
          </mxGeometry>
        </mxCell>
        <mxCell id="7VY-dnaH7uGsK5_24sgp-77" value="" style="endArrow=none;html=1;rounded=0;exitX=0.5;exitY=0;exitDx=0;exitDy=0;entryX=0.474;entryY=1.003;entryDx=0;entryDy=0;entryPerimeter=0;" parent="1" source="7VY-dnaH7uGsK5_24sgp-66" target="7VY-dnaH7uGsK5_24sgp-3" edge="1">
          <mxGeometry relative="1" as="geometry">
            <mxPoint x="717" y="540" as="sourcePoint" />
            <mxPoint x="718" y="480" as="targetPoint" />
            <Array as="points" />
          </mxGeometry>
        </mxCell>
        <mxCell id="7VY-dnaH7uGsK5_24sgp-78" value="" style="endArrow=none;html=1;rounded=0;exitX=0;exitY=0.5;exitDx=0;exitDy=0;entryX=1;entryY=0.5;entryDx=0;entryDy=0;" parent="1" source="7VY-dnaH7uGsK5_24sgp-68" target="7VY-dnaH7uGsK5_24sgp-3" edge="1">
          <mxGeometry relative="1" as="geometry">
            <mxPoint x="827" y="540" as="sourcePoint" />
            <mxPoint x="717" y="480" as="targetPoint" />
            <Array as="points" />
          </mxGeometry>
        </mxCell>
        <mxCell id="7VY-dnaH7uGsK5_24sgp-79" value="" style="endArrow=none;html=1;rounded=0;exitX=0;exitY=0.5;exitDx=0;exitDy=0;entryX=1;entryY=0.5;entryDx=0;entryDy=0;" parent="1" source="7VY-dnaH7uGsK5_24sgp-67" target="7VY-dnaH7uGsK5_24sgp-3" edge="1">
          <mxGeometry relative="1" as="geometry">
            <mxPoint x="837" y="550" as="sourcePoint" />
            <mxPoint x="727" y="490" as="targetPoint" />
            <Array as="points" />
          </mxGeometry>
        </mxCell>
        <mxCell id="7VY-dnaH7uGsK5_24sgp-80" value="발송" style="shape=rhombus;perimeter=rhombusPerimeter;whiteSpace=wrap;html=1;align=center;rounded=1;" parent="1" vertex="1">
          <mxGeometry x="354" y="420" width="120" height="60" as="geometry" />
        </mxCell>
        <mxCell id="7VY-dnaH7uGsK5_24sgp-81" value="" style="endArrow=none;html=1;rounded=0;entryX=0.5;entryY=0;entryDx=0;entryDy=0;" parent="1" source="7VY-dnaH7uGsK5_24sgp-1" target="7VY-dnaH7uGsK5_24sgp-80" edge="1">
          <mxGeometry relative="1" as="geometry">
            <mxPoint x="410" y="190" as="sourcePoint" />
            <mxPoint x="700" y="90" as="targetPoint" />
            <Array as="points" />
          </mxGeometry>
        </mxCell>
        <mxCell id="7VY-dnaH7uGsK5_24sgp-82" value="" style="endArrow=none;html=1;rounded=0;entryX=0.041;entryY=0.497;entryDx=0;entryDy=0;exitX=1;exitY=0.5;exitDx=0;exitDy=0;entryPerimeter=0;" parent="1" source="7VY-dnaH7uGsK5_24sgp-2" target="7VY-dnaH7uGsK5_24sgp-80" edge="1">
          <mxGeometry relative="1" as="geometry">
            <mxPoint x="424" y="200" as="sourcePoint" />
            <mxPoint x="424" y="300" as="targetPoint" />
            <Array as="points" />
          </mxGeometry>
        </mxCell>
        <mxCell id="7VY-dnaH7uGsK5_24sgp-83" value="" style="endArrow=none;html=1;rounded=0;entryX=0.041;entryY=0.506;entryDx=0;entryDy=0;exitX=0.958;exitY=0.499;exitDx=0;exitDy=0;exitPerimeter=0;entryPerimeter=0;" parent="1" source="7VY-dnaH7uGsK5_24sgp-80" target="7VY-dnaH7uGsK5_24sgp-25" edge="1">
          <mxGeometry relative="1" as="geometry">
            <mxPoint x="190" y="460" as="sourcePoint" />
            <mxPoint x="369" y="330" as="targetPoint" />
            <Array as="points" />
          </mxGeometry>
        </mxCell>
      </root>
    </mxGraphModel>
  </diagram>
</mxfile>
